# xmcd
#
# Track frame offsets: 
#        150
#        22420
#        42189
#        56915
#        74915
#        98571
#        120577
#        139358
#        152848
#        170145
#
# Disc length: 2557 seconds
#
# Revision: 0
# Processed by: cddbd v1.5.2PL0 Copyright (c) Steve Scherf et al.
# Submitted via: ExactAudioCopy v1.0b1
#
DISCID=9b09fb0a
DTITLE=Steve White - Home Away From Home
DYEAR=2009
DGENRE=Blues
TTITLE0=Alpine (One Horse Town)
TTITLE1=Drops Of The Day
TTITLE2=Everyday (I Have The Blues)
TTITLE3=Flat Top Box
TTITLE4=Another Midnight
TTITLE5=Refugee
TTITLE6=San Diego
TTITLE7=Show Me
TTITLE8=Time Zone
TTITLE9=Warrior Song
EXTD=
EXTT0=
EXTT1=
EXTT2=
EXTT3=
EXTT4=
EXTT5=
EXTT6=
EXTT7=
EXTT8=
EXTT9=
PLAYORDER=
